<svg xmlns="http://www.w3.org/2000/svg" width="900" height="520" viewBox="0 0 900 520">
<rect width="100%" height="100%" fill="white"/>
<text x="450.0" y="35" text-anchor="middle" font-family="Arial" font-size="22" font-weight="bold">Step 15 Test Macro-F1 by Condition</text>
<line x1="90" y1="420" x2="860" y2="420" stroke="black"/>
<line x1="90" y1="70" x2="90" y2="420" stroke="black"/>
<line x1="85" y1="420.0" x2="90" y2="420.0" stroke="black"/>
<text x="80" y="424.0" text-anchor="end" font-family="Arial" font-size="12">0.00</text>
<line x1="85" y1="350.0" x2="90" y2="350.0" stroke="black"/>
<text x="80" y="354.0" text-anchor="end" font-family="Arial" font-size="12">0.16</text>
<line x1="85" y1="280.0" x2="90" y2="280.0" stroke="black"/>
<text x="80" y="284.0" text-anchor="end" font-family="Arial" font-size="12">0.31</text>
<line x1="85" y1="210.0" x2="90" y2="210.0" stroke="black"/>
<text x="80" y="214.0" text-anchor="end" font-family="Arial" font-size="12">0.47</text>
<line x1="85" y1="140.0" x2="90" y2="140.0" stroke="black"/>
<text x="80" y="144.0" text-anchor="end" font-family="Arial" font-size="12">0.62</text>
<line x1="85" y1="70.0" x2="90" y2="70.0" stroke="black"/>
<text x="80" y="74.0" text-anchor="end" font-family="Arial" font-size="12">0.78</text>
<rect x="90.0" y="70.0" width="179.0" height="350.0" fill="#7aa6c2" stroke="black"/>
<text x="179.5" y="442" text-anchor="middle" font-family="Arial" font-size="12">original</text>
<text x="179.5" y="64.0" text-anchor="middle" font-family="Arial" font-size="12">0.777</text>
<rect x="287.0" y="241.6972292262762" width="179.0" height="178.3027707737238" fill="#7aa6c2" stroke="black"/>
<text x="376.5" y="442" text-anchor="middle" font-family="Arial" font-size="12">paraphrase</text>
<text x="376.5" y="235.6972292262762" text-anchor="middle" font-family="Arial" font-size="12">0.396</text>
<rect x="484.0" y="167.40099185127121" width="179.0" height="252.59900814872879" fill="#7aa6c2" stroke="black"/>
<text x="573.5" y="442" text-anchor="middle" font-family="Arial" font-size="12">modernize</text>
<text x="573.5" y="161.40099185127121" text-anchor="middle" font-family="Arial" font-size="12">0.561</text>
<rect x="681.0" y="211.13640722277782" width="179.0" height="208.86359277722218" fill="#7aa6c2" stroke="black"/>
<text x="770.5" y="442" text-anchor="middle" font-family="Arial" font-size="12">simplify</text>
<text x="770.5" y="205.13640722277782" text-anchor="middle" font-family="Arial" font-size="12">0.464</text>
<text x="25" y="245.0" text-anchor="middle" font-family="Arial" font-size="14" transform="rotate(-90 25 245.0)">Macro-F1</text>
</svg>