<svg xmlns="http://www.w3.org/2000/svg" width="900" height="520" viewBox="0 0 900 520">
<rect width="100%" height="100%" fill="white"/>
<text x="450.0" y="35" text-anchor="middle" font-family="Arial" font-size="22" font-weight="bold">Largest Feature-family Macro-F1 Losses</text>
<line x1="90" y1="420" x2="860" y2="420" stroke="black"/>
<line x1="90" y1="70" x2="90" y2="420" stroke="black"/>
<line x1="85" y1="420.0" x2="90" y2="420.0" stroke="black"/>
<text x="80" y="424.0" text-anchor="end" font-family="Arial" font-size="12">0.00</text>
<line x1="85" y1="350.0" x2="90" y2="350.0" stroke="black"/>
<text x="80" y="354.0" text-anchor="end" font-family="Arial" font-size="12">0.08</text>
<line x1="85" y1="280.0" x2="90" y2="280.0" stroke="black"/>
<text x="80" y="284.0" text-anchor="end" font-family="Arial" font-size="12">0.16</text>
<line x1="85" y1="210.0" x2="90" y2="210.0" stroke="black"/>
<text x="80" y="214.0" text-anchor="end" font-family="Arial" font-size="12">0.23</text>
<line x1="85" y1="140.0" x2="90" y2="140.0" stroke="black"/>
<text x="80" y="144.0" text-anchor="end" font-family="Arial" font-size="12">0.31</text>
<line x1="85" y1="70.0" x2="90" y2="70.0" stroke="black"/>
<text x="80" y="74.0" text-anchor="end" font-family="Arial" font-size="12">0.39</text>
<rect x="90.0" y="70.0" width="60.8" height="350.0" fill="#7aa6c2" stroke="black"/>
<text x="120.4" y="442" text-anchor="middle" font-family="Arial" font-size="12">char3
para</text>
<text x="120.4" y="64.0" text-anchor="middle" font-family="Arial" font-size="12">0.391</text>
<rect x="168.8" y="134.15465117766723" width="60.8" height="285.84534882233277" fill="#7aa6c2" stroke="black"/>
<text x="199.20000000000002" y="442" text-anchor="middle" font-family="Arial" font-size="12">char3
para</text>
<text x="199.20000000000002" y="128.15465117766723" text-anchor="middle" font-family="Arial" font-size="12">0.319</text>
<rect x="247.6" y="152.53521487148652" width="60.8" height="267.4647851285135" fill="#7aa6c2" stroke="black"/>
<text x="278.0" y="442" text-anchor="middle" font-family="Arial" font-size="12">char3
simp</text>
<text x="278.0" y="146.53521487148652" text-anchor="middle" font-family="Arial" font-size="12">0.299</text>
<rect x="326.4" y="163.84440208282695" width="60.8" height="256.15559791717305" fill="#7aa6c2" stroke="black"/>
<text x="356.79999999999995" y="442" text-anchor="middle" font-family="Arial" font-size="12">char3
para</text>
<text x="356.79999999999995" y="157.84440208282695" text-anchor="middle" font-family="Arial" font-size="12">0.286</text>
<rect x="405.2" y="179.78813505111117" width="60.8" height="240.21186494888883" fill="#7aa6c2" stroke="black"/>
<text x="435.59999999999997" y="442" text-anchor="middle" font-family="Arial" font-size="12">lexical_
para</text>
<text x="435.59999999999997" y="173.78813505111117" text-anchor="middle" font-family="Arial" font-size="12">0.268</text>
<rect x="484.0" y="181.59986182720723" width="60.8" height="238.40013817279277" fill="#7aa6c2" stroke="black"/>
<text x="514.4" y="442" text-anchor="middle" font-family="Arial" font-size="12">char3
mode</text>
<text x="514.4" y="175.59986182720723" text-anchor="middle" font-family="Arial" font-size="12">0.266</text>
<rect x="562.8" y="204.76542609674655" width="60.8" height="215.23457390325345" fill="#7aa6c2" stroke="black"/>
<text x="593.1999999999999" y="442" text-anchor="middle" font-family="Arial" font-size="12">lexical_
para</text>
<text x="593.1999999999999" y="198.76542609674655" text-anchor="middle" font-family="Arial" font-size="12">0.240</text>
<rect x="641.6" y="242.87527346698567" width="60.8" height="177.12472653301433" fill="#7aa6c2" stroke="black"/>
<text x="672.0" y="442" text-anchor="middle" font-family="Arial" font-size="12">register
para</text>
<text x="672.0" y="236.87527346698567" text-anchor="middle" font-family="Arial" font-size="12">0.198</text>
<rect x="720.4" y="244.53564985990815" width="60.8" height="175.46435014009185" fill="#7aa6c2" stroke="black"/>
<text x="750.8" y="442" text-anchor="middle" font-family="Arial" font-size="12">lexical_
para</text>
<text x="750.8" y="238.53564985990815" text-anchor="middle" font-family="Arial" font-size="12">0.196</text>
<rect x="799.1999999999999" y="252.21421900387654" width="60.8" height="167.78578099612346" fill="#7aa6c2" stroke="black"/>
<text x="829.5999999999999" y="442" text-anchor="middle" font-family="Arial" font-size="12">register
simp</text>
<text x="829.5999999999999" y="246.21421900387654" text-anchor="middle" font-family="Arial" font-size="12">0.187</text>
<text x="25" y="245.0" text-anchor="middle" font-family="Arial" font-size="14" transform="rotate(-90 25 245.0)">Macro-F1 loss</text>
</svg>